# xmcd CD database file
#
# Track frame offsets:
#	150
#	18807
#	38479
#	59656
#	78538
#	100602
#	124194
#	141069
#	159221
#	172420
#	181690
#	197017
#	215124
#	230396
#
# Disc length: 3363 seconds
#
# Revision: 5
# Processed by: cddbd v1.4PL0 Copyright (c) Steve Scherf et al.
# Submitted via: CDex 1.50Beta7
#
DISCID=b70d210e
DTITLE=Anders osborne - living room
DYEAR=1999
DGENRE=Blues
TTITLE0=Boxes, Bills, and Pain
TTITLE1=Greasy Money
TTITLE2=Had My Reasons
TTITLE3=Coast to Coast Blues
TTITLE4=Trippin' in Montana
TTITLE5=Ya Ya
TTITLE6=Never Is a Real Long Time
TTITLE7=Two Times
TTITLE8=Love Don't Care
TTITLE9=Home Coming
TTITLE10=Jetstream
TTITLE11=Takes Two
TTITLE12=Highway
TTITLE13=That's All
EXTD=YEAR: 1999
EXTT0=
EXTT1=
EXTT2=
EXTT3=
EXTT4=
EXTT5=
EXTT6=
EXTT7=
EXTT8=
EXTT9=
EXTT10=
EXTT11=
EXTT12=
EXTT13=
PLAYORDER=
